<svg xmlns="http://www.w3.org/2000/svg" viewBox="0 0 512 82" role="img" aria-labelledby="title desc">
  <title id="title">Guacalyzer</title>
  <desc id="desc">Guacalyzer wordmark with a transparent avocado oscilloscope icon.</desc>
  <defs>
    <linearGradient id="avocado" x1="6" x2="78" y1="6" y2="76" gradientUnits="userSpaceOnUse">
      <stop offset="0" stop-color="#c4e3b1" />
      <stop offset="0.46" stop-color="#72d144" />
      <stop offset="1" stop-color="#3c701b" />
    </linearGradient>
    <linearGradient id="pit" x1="33" x2="54" y1="30" y2="67" gradientUnits="userSpaceOnUse">
      <stop offset="0" stop-color="#d59b46" />
      <stop offset="1" stop-color="#652012" />
    </linearGradient>
  </defs>
  <g transform="translate(5 2)">
    <path d="M42 1c19 0 37 19 37 42 0 24-16 42-37 42S5 67 5 43C5 20 23 1 42 1Z" fill="url(#avocado)" stroke="#000" stroke-width="2.5" stroke-linejoin="round" />
    <path d="M42 13c14 0 26 14 26 31 0 18-11 30-26 30S16 62 16 44c0-17 12-31 26-31Z" fill="#292929" opacity=".88" />
    <path d="M31 55c0-12 5-24 11-24s11 12 11 24c0 11-5 18-11 18s-11-7-11-18Z" fill="url(#pit)" stroke="#000" stroke-width="1.4" />
    <path d="M9 44h13l6-10 8 23 7-34 9 31 6-10h15" fill="none" stroke="#e9ebfc" stroke-width="5.5" stroke-linecap="round" stroke-linejoin="round" />
    <path d="M9 44h13l6-10 8 23 7-34 9 31 6-10h15" fill="none" stroke="#72d144" stroke-width="2.6" stroke-linecap="round" stroke-linejoin="round" />
  </g>
  <g fill="#e9ebfc" font-family="Roboto, Arial, sans-serif" font-weight="900" letter-spacing="8">
    <text x="103" y="58" font-size="48">GUACALYZER</text>
  </g>
  <path d="M108 67h352" stroke="#72d144" stroke-width="4" stroke-linecap="round" opacity=".72" />
</svg>
