<svg xmlns="http://www.w3.org/2000/svg" viewBox="0 0 512 82" role="img" aria-labelledby="title desc">
  <title id="title">Guacalyzer</title>
  <desc id="desc">Guacalyzer wordmark with a transparent avocado oscilloscope icon.</desc>
  <defs>
    <linearGradient id="avocado" x1="4" x2="86" y1="0" y2="82" gradientUnits="userSpaceOnUse">
      <stop offset="0" stop-color="#e9f6dc" />
      <stop offset="0.55" stop-color="#bfe7a5" />
      <stop offset="1" stop-color="#7abb55" />
    </linearGradient>
    <linearGradient id="pit" x1="33" x2="54" y1="30" y2="67" gradientUnits="userSpaceOnUse">
      <stop offset="0" stop-color="#d59b46" />
      <stop offset="1" stop-color="#652012" />
    </linearGradient>
  </defs>
  <g transform="translate(2 -1)">
    <path d="M46 2c21 0 41 20 41 43 0 25-18 42-41 42S5 70 5 45C5 22 25 2 46 2Z" fill="#0b1b08" opacity=".45" transform="translate(3 3)" />
    <path d="M46 2c21 0 41 20 41 43 0 25-18 42-41 42S5 70 5 45C5 22 25 2 46 2Z" fill="url(#avocado)" stroke="#10240b" stroke-width="3.5" stroke-linejoin="round" />
    <path d="M46 14c15 0 28 14 28 31 0 18-12 30-28 30S18 63 18 45c0-17 13-31 28-31Z" fill="#f2f8df" opacity=".94" />
    <path d="M34 55c0-13 5-24 12-24s12 11 12 24c0 12-5 19-12 19s-12-7-12-19Z" fill="url(#pit)" stroke="#1b0802" stroke-width="1.8" />
    <path d="M11 45h14l6-11 9 24 7-35 10 31 6-9h17" fill="none" stroke="#10240b" stroke-width="6" stroke-linecap="round" stroke-linejoin="round" opacity=".92" />
    <path d="M11 45h14l6-11 9 24 7-35 10 31 6-9h17" fill="none" stroke="#e9ebfc" stroke-width="2.6" stroke-linecap="round" stroke-linejoin="round" />
  </g>
  <g fill="#e9ebfc" font-family="Roboto, Arial, sans-serif" font-weight="900" letter-spacing="8">
    <text x="108" y="58" font-size="48">GUACALYZER</text>
  </g>
  <path d="M113 67h352" stroke="#e9f6dc" stroke-width="4" stroke-linecap="round" opacity=".72" />
</svg>
